<?xml version="1.0" standalone="no"?>
<!DOCTYPE svg PUBLIC "-//W3C//DTD SVG 20010904//EN"
 "http://www.w3.org/TR/2001/REC-SVG-20010904/DTD/svg10.dtd">
<svg version="1.0" xmlns="http://www.w3.org/2000/svg"
 width="217.000000pt" height="232.000000pt" viewBox="0 0 217.000000 232.000000"
 preserveAspectRatio="xMidYMid meet">

<g transform="translate(0.000000,232.000000) scale(0.100000,-0.100000)"
fill="#000000" stroke="none">
<path d="M1398 1930 c-19 -14 -44 -20 -99 -22 l-74 -3 -3 -87 -3 -87 -52 5
c-29 3 -58 7 -64 10 -21 6 -15 58 7 72 36 22 19 72 -25 72 -45 0 -60 -47 -25
-77 11 -10 20 -28 20 -40 0 -24 -6 -27 -87 -37 l-43 -6 0 45 0 45 -70 0 c-52
0 -72 4 -76 14 -9 23 -35 28 -60 11 -26 -17 -31 -44 -12 -63 17 -17 53 -15 68
3 8 10 31 15 71 15 l59 0 0 -37 c0 -37 -3 -39 -66 -72 -86 -45 -171 -130 -212
-214 -17 -37 -32 -71 -32 -77 0 -6 -38 -10 -99 -10 l-98 0 3 72 c2 52 7 74 19
80 18 11 20 49 3 66 -19 19 -56 14 -69 -9 -9 -18 -7 -27 10 -50 17 -23 21 -43
21 -104 l0 -75 98 0 98 0 -1 -97 c0 -54 4 -116 8 -138 l8 -40 -58 0 -58 0 -3
-65 c-2 -48 -8 -69 -23 -83 -22 -20 -23 -30 -9 -58 12 -21 50 -25 68 -7 19 19
14 56 -8 70 -16 10 -20 24 -20 70 l0 58 63 0 62 -1 23 -49 c33 -70 134 -168
210 -204 l62 -30 0 -113 0 -113 -68 0 c-55 0 -71 4 -85 20 -30 35 -77 20 -77
-25 0 -45 47 -60 77 -25 15 17 30 20 95 20 l78 0 0 116 c0 115 0 116 23 111
12 -4 41 -9 65 -13 l42 -7 0 -49 c0 -39 -5 -54 -22 -67 -43 -35 2 -98 52 -71
26 14 26 56 0 72 -16 10 -20 24 -20 64 l0 51 43 7 c23 4 52 9 65 13 21 5 22 3
22 -66 l0 -71 68 0 c56 0 69 -3 80 -20 18 -29 60 -26 74 5 22 48 -47 89 -74
45 -10 -16 -24 -20 -70 -20 l-58 0 0 68 0 67 67 35 c82 42 169 127 203 197
l25 52 103 1 102 0 0 -74 c0 -56 -4 -75 -15 -80 -9 -3 -15 -18 -15 -36 0 -23
6 -33 26 -42 23 -11 29 -10 45 11 24 29 24 36 -1 61 -16 16 -20 33 -20 95 l0
75 -111 0 c-102 0 -111 1 -104 18 3 9 11 41 17 70 11 51 11 52 48 52 24 0 43
-7 55 -20 24 -26 50 -25 69 2 32 45 -31 89 -69 48 -12 -13 -31 -20 -57 -20
-37 0 -38 1 -38 34 0 18 -3 48 -6 65 l-6 31 56 0 56 0 0 65 c0 52 4 69 20 85
25 25 25 32 1 61 -16 21 -22 22 -45 11 -30 -13 -36 -52 -11 -72 10 -9 15 -32
15 -76 l0 -64 -37 0 c-21 0 -43 4 -48 8 -6 4 -27 41 -48 83 -46 94 -127 178
-214 221 l-63 31 0 83 0 84 70 0 c56 0 74 -4 90 -20 15 -15 25 -17 42 -11 30
11 37 60 12 78 -23 17 -27 17 -56 -7z m-193 -215 c228 -60 384 -296 345 -526
-16 -93 -69 -198 -134 -262 -244 -244 -653 -152 -774 173 -45 122 -37 245 23
366 100 203 322 305 540 249z"/>
<path d="M1022 1579 c-69 -21 -132 -111 -132 -189 0 -19 -8 -28 -30 -37 l-30
-11 0 -99 c0 -133 16 -178 85 -242 106 -96 253 -93 353 10 50 51 65 94 70 196
5 113 -1 141 -32 149 -20 5 -24 14 -29 55 -8 62 -38 113 -87 145 -42 28 -118
39 -168 23z m134 -113 c26 -26 34 -42 34 -70 l0 -36 -105 0 -105 0 0 33 c1 64
44 106 109 107 25 0 42 -9 67 -34z m-23 -243 c9 -19 7 -31 -6 -56 -12 -22 -15
-42 -11 -65 6 -32 6 -32 -31 -32 l-37 0 7 36 c5 27 2 41 -10 54 -23 25 -16 72
13 86 32 16 61 6 75 -23z"/>
<path d="M443 1268 c-31 -39 -17 -78 27 -78 16 0 33 7 37 15 5 8 23 17 41 19
47 5 52 16 9 16 -24 0 -44 7 -57 20 -23 23 -43 26 -57 8z"/>
<path d="M0 70 l0 -70 1085 0 1085 0 0 70 0 70 -1085 0 -1085 0 0 -70z m152
14 c9 -3 19 -13 21 -23 3 -11 5 -9 6 7 0 12 6 23 11 23 39 5 45 3 47 -21 1
-19 -4 -26 -18 -27 -11 -1 -19 5 -20 15 -1 15 -2 15 -6 -1 -6 -22 -45 -19 -55
3 -5 12 -7 12 -7 -2 -1 -13 -9 -18 -28 -18 -22 0 -25 2 -13 10 10 6 11 10 3
10 -20 0 -15 28 5 33 9 3 22 3 27 1 6 -2 18 -7 27 -10z m236 3 c10 4 13 1 10
-8 -3 -8 -13 -13 -22 -12 -10 0 -15 -4 -13 -11 4 -9 -5 -13 -26 -14 -19 0 -26
2 -18 7 10 6 9 10 -3 14 -11 4 -16 1 -16 -10 0 -13 -3 -14 -12 -5 -7 7 -17 12
-22 12 -6 0 -4 -5 4 -10 13 -8 12 -10 -2 -10 -13 0 -18 8 -18 25 0 16 6 25 15
25 8 0 15 -6 15 -12 0 -9 3 -9 8 -3 12 18 50 15 55 -3 3 -11 5 -8 6 8 1 18 4
21 12 13 6 -6 18 -9 27 -6z m82 3 c0 -5 8 -7 18 -4 13 5 14 4 3 -4 -8 -6 -11
-16 -8 -24 4 -12 -5 -15 -44 -15 -49 -1 -50 0 -35 21 7 11 21 20 30 20 9 -1
16 2 16 7 0 5 5 9 10 9 6 0 10 -4 10 -10z m1430 0 c0 -5 -5 -10 -11 -10 -5 0
-7 5 -4 10 3 6 8 10 11 10 2 0 4 -4 4 -10z"/>
<path d="M430 59 c0 -5 5 -7 10 -4 6 3 10 8 10 11 0 2 -4 4 -10 4 -5 0 -10 -5
-10 -11z"/>
</g>
</svg>
